<?xml version="1.0" encoding="utf-8"?>
<!-- Generator: Adobe Illustrator 18.1.1, SVG Export Plug-In . SVG Version: 6.00 Build 0)  -->
<svg version="1.1" id="Layer_1" xmlns="http://www.w3.org/2000/svg" xmlns:xlink="http://www.w3.org/1999/xlink" x="0px" y="0px"
	 viewBox="0 0 100 45" enable-background="new 0 0 100 45" xml:space="preserve">
<rect x="3.1" y="3.8" transform="matrix(-0.9994 3.490445e-02 -3.490445e-02 -0.9994 32.513 44.4334)" fill="#FF4136" width="25.6" height="37.3"/>
<rect x="20.7" y="10.7" transform="matrix(-3.490733e-02 0.9994 -0.9994 -3.490733e-02 62.2289 -15.0928)" fill="#FF851B" width="35.3" height="23.6"/>
<rect x="49.1" y="3.8" transform="matrix(-0.9998 1.743315e-02 -1.743315e-02 -0.9998 124.2539 43.9173)" fill="#39CCCC" width="25.6" height="37.3"/>
<rect x="67.8" y="10.7" transform="matrix(-1.744008e-02 0.9998 -0.9998 -1.744008e-02 109.4559 -62.5629)" fill="#3D9970" width="35.3" height="23.6"/>
<polygon fill="#FFFFFF" points="24.4,37.3 6.8,37 7.1,22.3 12.9,22.4 12.8,31.2 18.6,31.4 19.1,7.9 24.9,8 "/>
<polygon fill="#FFFFFF" points="47.5,37 29.9,37.3 29.3,8 46.9,7.7 47,13.5 35.3,13.8 35.4,19.6 41.3,19.5 41.4,25.4 35.5,25.5 
	35.6,31.4 47.4,31.1 "/>
<polygon fill="#FFFFFF" points="59,22.4 58.7,37.1 52.9,37 53.4,7.7 71,8 70.7,22.7 "/>
<polygon fill="#FFFFFF" points="94.5,37 88.7,37.1 88.5,25.4 82.6,25.5 82.8,37.2 76.9,37.3 76.4,8 82.3,7.9 82.5,19.6 88.4,19.5 
	88.1,7.8 94,7.7 "/>
</svg>
